<svg xmlns="http://www.w3.org/2000/svg" width="227.4" height="55" viewBox="0 0 227.4 55"><path d="M226.8,13.8l-4.7-7.5-7.7,1,3.4,3.7H162.5l3.7-4-7.8-1-4.8,7.9h0a6.6,6.6,0,0,0-1.4,4.1V50a7.1,7.1,0,0,0,7,7h62a7,7,0,0,0,7-7V18A6.8,6.8,0,0,0,226.8,13.8Z" transform="translate(-1.3 -2.5)" style="fill:#141321;stroke:#b4aedf;stroke-linecap:round;stroke-linejoin:round"/><rect x="155.9" y="0.5" width="66" height="38" rx="7" style="fill:#141321;stroke:#b4aedf;stroke-miterlimit:10"/><path d="M76.4,13.8,71.7,6.3,64,7.3,67.4,11H12.1l3.7-4L8,6,3.2,13.9h0A6.6,6.6,0,0,0,1.8,18V50a7,7,0,0,0,7,7h62a7.1,7.1,0,0,0,7-7V18A6.8,6.8,0,0,0,76.4,13.8Z" transform="translate(-1.3 -2.5)" style="fill:#141321;stroke:#b4aedf;stroke-linecap:round;stroke-linejoin:round"/><rect x="5.5" y="0.5" width="66" height="38" rx="7" style="fill:#141321;stroke:#b4aedf;stroke-miterlimit:10"/><line x1="120.1" y1="10.9" x2="109.4" y2="44.1" style="fill:#141321;stroke:#b4aedf;stroke-linecap:round;stroke-miterlimit:10"/><text transform="translate(14 25.4)" style="font-size:17px;fill:#b4aedf;font-family:Baloo2-Bold, "Baloo 2";font-weight:700">ENTER</text><text transform="translate(175.7 25.4)" style="font-size:17px;fill:#b4aedf;font-family:Baloo2-Bold, "Baloo 2";font-weight:700"><tspan style="letter-spacing:0.0029871323529411763em">E</tspan><tspan x="9.3" y="0" style="letter-spacing:0.0049977022058823525em">S</tspan><tspan x="18.7" y="0">C</tspan></text></svg>