<?xml version="1.0" encoding="utf-8"?>
<!-- Generator: Adobe Illustrator 24.2.3, SVG Export Plug-In . SVG Version: 6.00 Build 0)  -->
<svg version="1.1" id="Layer_1" xmlns="http://www.w3.org/2000/svg" xmlns:xlink="http://www.w3.org/1999/xlink" x="0px" y="0px"
	 width="230px" height="60px" viewBox="0 0 230 60" enable-background="new 0 0 230 60" xml:space="preserve">
<g>
	<g>
		<path fill="#141321" stroke="#B4AEDF" stroke-linecap="round" stroke-linejoin="round" stroke-miterlimit="10" d="M226.8,13.8
			l-4.7-7.5l-7.8,1l3.4,3.7h-55.3l3.7-4l-7.8-1l-4.9,7.8l0,0c-0.9,1.2-1.4,2.6-1.4,4.1v32c0,3.8,3.2,7,7,7h62c3.8,0,7-3.2,7-7V18
			C228.2,16.4,227.7,15,226.8,13.8z"/>
		<path fill="#141321" stroke="#B4AEDF" stroke-miterlimit="10" d="M216.2,41h-52c-3.9,0-7-3.2-7-7V10c0-3.8,3.1-7,7-7h52
			c3.8,0,7,3.2,7,7v24C223.2,37.8,220.1,41,216.2,41z"/>
	</g>
	<g>
		<path fill="#141321" stroke="#B4AEDF" stroke-linecap="round" stroke-linejoin="round" stroke-miterlimit="10" d="M76.4,13.8
			l-4.7-7.5l-7.8,1l3.4,3.7H12.1l3.7-4L8,6l-4.9,7.8l0,0C2.3,15,1.8,16.5,1.8,18v32c0,3.8,3.2,7,7,7h62c3.8,0,7-3.2,7-7V18
			C77.8,16.4,77.3,15,76.4,13.8z"/>
		<path fill="#141321" stroke="#B4AEDF" stroke-miterlimit="10" d="M65.8,41h-52c-3.9,0-7-3.2-7-7V10c0-3.8,3.1-7,7-7h52
			c3.8,0,7,3.2,7,7v24C72.8,37.8,69.6,41,65.8,41z"/>
	</g>
	<line fill="#141321" stroke="#B4AEDF" stroke-linecap="round" stroke-miterlimit="10" x1="121.4" y1="13.4" x2="110.7" y2="46.6"/>
</g>
<g>
	<path fill="#FFFFFF" d="M16.8,27.5c-0.3-0.3-0.4-0.6-0.4-1V19c0-0.4,0.1-0.8,0.4-1s0.6-0.4,1-0.4h5.6c0.1,0.1,0.1,0.3,0.2,0.4
		s0.1,0.4,0.1,0.6c0,0.4-0.1,0.7-0.2,0.8c-0.2,0.2-0.4,0.3-0.7,0.3h-3.8v1.9H23c0.1,0.1,0.1,0.3,0.2,0.4c0.1,0.2,0.1,0.4,0.1,0.6
		c0,0.4-0.1,0.6-0.2,0.8c-0.2,0.2-0.4,0.3-0.7,0.3h-3.3v2.1h4.5c0.1,0.1,0.1,0.3,0.2,0.4c0.1,0.2,0.1,0.4,0.1,0.6
		c0,0.4-0.1,0.6-0.2,0.8c-0.2,0.2-0.4,0.3-0.7,0.3h-5C17.4,27.9,17.1,27.8,16.8,27.5z"/>
	<path fill="#FFFFFF" d="M34.2,27.9c-0.3,0.1-0.6,0.1-1,0.1c-0.4,0-0.7-0.1-1.1-0.2c-0.3-0.1-0.6-0.4-0.8-0.9l-2-3.8
		c-0.2-0.4-0.4-0.7-0.5-1.1s-0.3-0.7-0.5-1.1l-0.1,0c0.1,0.7,0.1,1.3,0.1,1.9c0,0.6,0,1.2,0,1.8v3.2c-0.1,0-0.3,0-0.5,0.1
		c-0.2,0-0.5,0-0.7,0c-0.5,0-0.9-0.1-1.1-0.3s-0.3-0.5-0.3-0.9V18c0.1-0.2,0.4-0.3,0.7-0.5c0.3-0.1,0.6-0.2,1-0.2
		c0.4,0,0.8,0.1,1.1,0.2c0.3,0.1,0.6,0.4,0.8,0.8l2,3.8c0.2,0.4,0.4,0.7,0.5,1.1s0.3,0.7,0.5,1.1l0.1,0c-0.1-0.8-0.1-1.5-0.1-2.2
		c0-0.7,0-1.3,0-2v-2.8c0.1,0,0.3-0.1,0.5-0.1c0.2,0,0.5-0.1,0.7-0.1c0.5,0,0.9,0.1,1.1,0.3s0.3,0.5,0.3,0.9v8.9
		C34.7,27.7,34.5,27.8,34.2,27.9z"/>
	<path fill="#FFFFFF" d="M42,19.7v8.1c-0.1,0-0.3,0.1-0.5,0.1c-0.2,0-0.5,0-0.7,0c-0.5,0-0.9-0.1-1.1-0.3c-0.2-0.2-0.3-0.5-0.3-1v-7
		h-2.7c-0.1-0.1-0.1-0.3-0.2-0.4c-0.1-0.2-0.1-0.4-0.1-0.6c0-0.4,0.1-0.7,0.3-0.8c0.2-0.2,0.4-0.3,0.7-0.3h7.4
		c0.1,0.1,0.1,0.3,0.2,0.4s0.1,0.4,0.1,0.6c0,0.4-0.1,0.7-0.3,0.8c-0.2,0.2-0.4,0.3-0.7,0.3H42z"/>
	<path fill="#FFFFFF" d="M46.9,27.5c-0.3-0.3-0.4-0.6-0.4-1V19c0-0.4,0.1-0.8,0.4-1s0.6-0.4,1-0.4h5.6c0.1,0.1,0.1,0.3,0.2,0.4
		s0.1,0.4,0.1,0.6c0,0.4-0.1,0.7-0.2,0.8c-0.2,0.2-0.4,0.3-0.7,0.3h-3.8v1.9h3.9c0.1,0.1,0.1,0.3,0.2,0.4c0.1,0.2,0.1,0.4,0.1,0.6
		c0,0.4-0.1,0.6-0.2,0.8c-0.2,0.2-0.4,0.3-0.7,0.3h-3.3v2.1h4.5c0.1,0.1,0.1,0.3,0.2,0.4c0.1,0.2,0.1,0.4,0.1,0.6
		c0,0.4-0.1,0.6-0.2,0.8c-0.2,0.2-0.4,0.3-0.7,0.3h-5C47.5,27.9,47.2,27.8,46.9,27.5z"/>
	<path fill="#FFFFFF" d="M64,20.9c0,0.7-0.2,1.2-0.5,1.8c-0.3,0.5-0.8,0.9-1.4,1.2c0.5,0.6,0.9,1.2,1.3,1.7c0.4,0.5,0.7,1,0.9,1.3
		c-0.1,0.4-0.3,0.6-0.6,0.8c-0.3,0.2-0.6,0.3-0.9,0.3c-0.4,0-0.8-0.1-1-0.3s-0.4-0.4-0.6-0.8l-1.6-2.5h-1.2v3.4
		c-0.1,0-0.3,0.1-0.5,0.1c-0.2,0-0.5,0-0.7,0c-0.5,0-0.9-0.1-1.1-0.3c-0.2-0.2-0.3-0.5-0.3-1v-8.2c0-0.2,0.1-0.4,0.2-0.5
		c0.1-0.1,0.3-0.2,0.5-0.3c0.4-0.1,0.8-0.2,1.3-0.3c0.5-0.1,1-0.1,1.6-0.1c1.5,0,2.7,0.3,3.5,1S64,19.8,64,20.9z M59.5,22.4
		c0.5,0,1-0.1,1.3-0.4s0.5-0.6,0.5-1.1c0-1-0.7-1.5-2-1.5c-0.2,0-0.3,0-0.5,0c-0.1,0-0.3,0-0.4,0.1v2.9H59.5z"/>
</g>
<g>
	<path fill="#FFFFFF" d="M178.6,27.5c-0.3-0.3-0.4-0.6-0.4-1V19c0-0.4,0.1-0.8,0.4-1s0.6-0.4,1-0.4h5.6c0.1,0.1,0.1,0.3,0.2,0.4
		s0.1,0.4,0.1,0.6c0,0.4-0.1,0.7-0.2,0.8c-0.2,0.2-0.4,0.3-0.7,0.3h-3.8v1.9h3.9c0.1,0.1,0.1,0.3,0.2,0.4c0.1,0.2,0.1,0.4,0.1,0.6
		c0,0.4-0.1,0.6-0.2,0.8c-0.2,0.2-0.4,0.3-0.7,0.3h-3.3v2.1h4.5c0.1,0.1,0.1,0.3,0.2,0.4c0.1,0.2,0.1,0.4,0.1,0.6
		c0,0.4-0.1,0.6-0.2,0.8c-0.2,0.2-0.4,0.3-0.7,0.3h-5C179.2,27.9,178.9,27.8,178.6,27.5z"/>
	<path fill="#FFFFFF" d="M190.6,26c0.6,0,1-0.1,1.3-0.3c0.3-0.2,0.4-0.5,0.4-0.8c0-0.3-0.1-0.5-0.3-0.7c-0.2-0.2-0.5-0.3-0.9-0.4
		l-0.9-0.3c-0.5-0.1-0.9-0.3-1.3-0.5c-0.4-0.2-0.7-0.4-1-0.6c-0.3-0.2-0.5-0.5-0.6-0.9s-0.2-0.7-0.2-1.2c0-1,0.4-1.7,1.1-2.3
		s1.7-0.8,3-0.8c0.5,0,0.9,0,1.4,0.1c0.4,0.1,0.8,0.2,1.1,0.3c0.3,0.1,0.5,0.3,0.7,0.5c0.2,0.2,0.3,0.4,0.3,0.7
		c0,0.3-0.1,0.5-0.2,0.7c-0.1,0.2-0.3,0.4-0.5,0.5c-0.3-0.2-0.6-0.3-1-0.5c-0.4-0.1-0.9-0.2-1.4-0.2c-0.5,0-0.9,0.1-1.2,0.3
		s-0.4,0.4-0.4,0.6c0,0.2,0.1,0.4,0.3,0.5c0.2,0.1,0.4,0.2,0.8,0.4l0.9,0.3c0.5,0.2,1,0.4,1.4,0.6c0.4,0.2,0.7,0.4,1,0.7
		c0.3,0.3,0.5,0.6,0.6,0.9s0.2,0.7,0.2,1.2c0,0.5-0.1,0.9-0.3,1.3c-0.2,0.4-0.5,0.7-0.8,1c-0.4,0.3-0.8,0.5-1.4,0.7
		c-0.5,0.2-1.2,0.2-1.9,0.2c-0.5,0-1,0-1.4-0.1c-0.4-0.1-0.8-0.2-1.1-0.4c-0.3-0.2-0.6-0.4-0.8-0.6c-0.2-0.2-0.3-0.5-0.3-0.8
		c0-0.3,0.1-0.6,0.3-0.8c0.2-0.2,0.4-0.4,0.6-0.5c0.3,0.2,0.7,0.5,1.1,0.7C189.5,25.9,190,26,190.6,26z"/>
	<path fill="#FFFFFF" d="M204.9,19c0,0.3-0.1,0.5-0.2,0.7s-0.3,0.4-0.5,0.5c-0.3-0.2-0.6-0.4-1-0.5c-0.3-0.1-0.8-0.2-1.2-0.2
		c-0.9,0-1.6,0.3-2.1,0.9s-0.8,1.4-0.8,2.4c0,1.1,0.3,1.9,0.8,2.5c0.5,0.5,1.3,0.8,2.2,0.8c0.5,0,0.9-0.1,1.3-0.2s0.7-0.3,1-0.5
		c0.2,0.1,0.3,0.3,0.4,0.5c0.1,0.2,0.2,0.4,0.2,0.7c0,0.2-0.1,0.4-0.2,0.6s-0.3,0.4-0.6,0.5c-0.2,0.1-0.5,0.2-0.9,0.3
		c-0.4,0.1-0.9,0.1-1.4,0.1c-0.8,0-1.5-0.1-2.1-0.3c-0.7-0.2-1.2-0.5-1.7-1s-0.9-1-1.1-1.7c-0.3-0.7-0.4-1.5-0.4-2.4
		c0-0.9,0.1-1.7,0.4-2.3c0.3-0.7,0.7-1.2,1.1-1.7s1-0.8,1.7-1s1.3-0.4,2-0.4c1,0,1.8,0.2,2.4,0.5C204.6,18.1,204.9,18.5,204.9,19z"
		/>
</g>
<g>
</g>
<g>
</g>
<g>
</g>
<g>
</g>
<g>
</g>
<g>
</g>
<g>
</g>
<g>
</g>
<g>
</g>
<g>
</g>
<g>
</g>
<g>
</g>
<g>
</g>
<g>
</g>
<g>
</g>
</svg>
